<svg width="56" height="44" viewBox="0 0 56 44" fill="none" xmlns="http://www.w3.org/2000/svg">
<path d="M41.925 23.4998C41.925 23.9613 41.818 24.4357 41.5905 24.8972C41.363 25.3588 41.0686 25.7947 40.6805 26.2049C40.0248 26.8972 39.3022 27.3972 38.4859 27.7177C37.683 28.0382 36.8132 28.2049 35.8765 28.2049C34.5115 28.2049 33.0529 27.8972 31.514 27.269C29.9751 26.6408 28.4362 25.7947 26.9106 24.7306C25.3717 23.6537 23.9131 22.4614 22.5214 21.1409C21.1431 19.8075 19.8986 18.4101 18.7879 16.9486C17.6906 15.4871 16.8074 14.0255 16.165 12.5768C15.5227 11.1153 15.2015 9.71787 15.2015 8.38454C15.2015 7.51276 15.3621 6.67943 15.6833 5.9102C16.0044 5.12816 16.513 4.41022 17.2222 3.76919C18.0786 2.96151 19.0154 2.56408 20.0056 2.56408C20.3803 2.56408 20.755 2.641 21.0895 2.79484C21.4375 2.94869 21.7452 3.17946 21.9861 3.51279L25.0907 7.70506C25.3316 8.02557 25.5055 8.32044 25.626 8.60249C25.7464 8.87172 25.8133 9.14095 25.8133 9.38454C25.8133 9.69223 25.7196 9.99992 25.5323 10.2948C25.3583 10.5897 25.1041 10.8973 24.7829 11.205L23.7659 12.2178C23.6187 12.3589 23.5518 12.5255 23.5518 12.7307C23.5518 12.8332 23.5652 12.923 23.5919 13.0255C23.6321 13.1281 23.6722 13.205 23.699 13.2819C23.9399 13.705 24.3547 14.2563 24.9435 14.923C25.5457 15.5896 26.188 16.2691 26.8839 16.9486C27.6065 17.6281 28.3023 18.2563 29.0116 18.8332C29.7074 19.3973 30.2828 19.7819 30.7378 20.0127C30.8047 20.0383 30.885 20.0768 30.9787 20.1152C31.0858 20.1537 31.1928 20.1665 31.3132 20.1665C31.5407 20.1665 31.7147 20.0896 31.8619 19.9486L32.8789 18.987C33.2135 18.6665 33.5346 18.4229 33.8424 18.2691C34.1502 18.0896 34.458 17.9999 34.7925 17.9999C35.0468 17.9999 35.3144 18.0511 35.6088 18.1665C35.9032 18.2819 36.211 18.4486 36.5455 18.6665L40.9749 21.6793C41.3229 21.9101 41.5637 22.1793 41.7109 22.4998C41.8447 22.8203 41.925 23.1408 41.925 23.4998Z" stroke="white" stroke-width="2.01974" stroke-miterlimit="10"/>
<path d="M2.40969 42.2283C2.2729 42.2283 2.16199 42.1821 2.07696 42.0897C1.99562 41.9972 1.95495 41.8734 1.95495 41.7181V35.7621C1.95495 35.6106 1.99747 35.483 2.0825 35.3795C2.16754 35.2723 2.28769 35.2187 2.44297 35.2187C2.73873 35.2187 2.88661 35.3998 2.88661 35.7621V38.3353H3.77391C3.87373 38.3353 3.98649 38.2854 4.11219 38.1856C4.23789 38.082 4.38577 37.9157 4.55583 37.6865C4.7259 37.4535 4.92739 37.1411 5.1603 36.7493C5.23794 36.6199 5.33221 36.4683 5.44313 36.2945C5.55404 36.1171 5.68159 35.947 5.82577 35.7843C5.97365 35.618 6.14002 35.4812 6.32487 35.374C6.51342 35.263 6.72046 35.2076 6.94598 35.2076C7.33047 35.2076 7.52272 35.374 7.52272 35.7067C7.52272 35.8841 7.46726 35.9951 7.35635 36.0394C7.24914 36.0838 7.11235 36.1171 6.94598 36.1392C6.78701 36.1614 6.64282 36.252 6.51342 36.411C6.38772 36.5663 6.22505 36.8047 6.02541 37.1264C5.85535 37.4036 5.71856 37.6255 5.61504 37.7918C5.51522 37.9582 5.42649 38.0968 5.34885 38.2077C5.27121 38.3187 5.17879 38.4277 5.07157 38.5349C4.96805 38.6385 4.82387 38.7678 4.63902 38.9231L4.61683 38.6348C4.84605 38.8196 5.04754 39.0137 5.2213 39.217C5.39876 39.4167 5.55589 39.6163 5.69268 39.816C5.82947 40.0156 5.95517 40.206 6.06978 40.3872C6.26572 40.6866 6.42469 40.9066 6.5467 41.0471C6.6724 41.1839 6.80919 41.2671 6.95707 41.2966C7.01253 41.3077 7.08462 41.3225 7.17335 41.341C7.26577 41.3558 7.34711 41.3946 7.41735 41.4575C7.4876 41.5203 7.52272 41.6257 7.52272 41.7736C7.52272 42.0767 7.34156 42.2283 6.97925 42.2283C6.70937 42.2283 6.43024 42.1396 6.14187 41.9621C5.8572 41.7809 5.58177 41.5111 5.31558 41.1524C5.25643 41.0674 5.16585 40.938 5.04384 40.7643C4.92554 40.5868 4.81648 40.4241 4.71666 40.2762C4.49113 39.9361 4.29704 39.6829 4.13437 39.5165C3.9754 39.3501 3.81827 39.267 3.66299 39.267H2.88661V41.7181C2.88661 41.866 2.84225 41.988 2.75352 42.0841C2.66849 42.1802 2.55388 42.2283 2.40969 42.2283ZM11.407 42.1507C10.6971 42.1507 10.1315 42.0878 9.71002 41.9621C9.29225 41.8327 8.99094 41.6201 8.80609 41.3244C8.62493 41.0249 8.53436 40.6201 8.53436 40.1099V38.9453C8.53436 38.4351 8.62493 38.0321 8.80609 37.7364C8.99094 37.4369 9.29225 37.2243 9.71002 37.0986C10.1315 36.9692 10.6971 36.9045 11.407 36.9045H11.7286C12.4384 36.9045 13.0022 36.9692 13.42 37.0986C13.8378 37.228 14.1372 37.4425 14.3184 37.7419C14.4996 38.0377 14.5901 38.4388 14.5901 38.9453V40.1099C14.5901 40.6164 14.4996 41.0194 14.3184 41.3188C14.1372 41.6146 13.8378 41.8272 13.42 41.9566C13.0022 42.086 12.4384 42.1507 11.7286 42.1507H11.407ZM11.407 41.219H11.7286C12.2832 41.219 12.6972 41.1931 12.9708 41.1414C13.2481 41.0859 13.4311 40.9768 13.5198 40.8142C13.6123 40.6478 13.6585 40.4019 13.6585 40.0766V38.9786C13.6585 38.6495 13.6123 38.4037 13.5198 38.241C13.4311 38.0783 13.2481 37.9711 12.9708 37.9194C12.6972 37.8639 12.2832 37.8362 11.7286 37.8362H11.407C10.8487 37.8362 10.4309 37.8639 10.1537 37.9194C9.87639 37.9711 9.69153 38.0783 9.59911 38.241C9.51038 38.4037 9.46601 38.6495 9.46601 38.9786V40.0766C9.46601 40.4019 9.51038 40.6478 9.59911 40.8142C9.69153 40.9768 9.87639 41.0859 10.1537 41.1414C10.4309 41.1931 10.8487 41.219 11.407 41.219ZM16.434 42.2283C16.1235 42.2283 15.9682 42.0508 15.9682 41.6959V37.3704C15.9682 37.008 16.1161 36.8269 16.4119 36.8269C16.7372 36.8269 16.8999 37.008 16.8999 37.3704V38.912H20.6487V37.3704C20.6487 37.008 20.804 36.8269 21.1145 36.8269C21.4251 36.8269 21.5803 37.008 21.5803 37.3704V41.6959C21.5803 42.0508 21.4251 42.2283 21.1145 42.2283C20.804 42.2283 20.6487 42.0508 20.6487 41.6959V39.8437H16.8999V41.6959C16.8999 42.0508 16.7446 42.2283 16.434 42.2283ZM25.1357 42.2283C24.7955 42.2283 24.6255 42.0619 24.6255 41.7292V37.8362H23.0283C22.666 37.8362 22.4849 37.6809 22.4849 37.3704C22.4849 37.0598 22.666 36.9045 23.0283 36.9045H27.2541C27.6164 36.9045 27.7975 37.0598 27.7975 37.3704C27.7975 37.6809 27.6164 37.8362 27.2541 37.8362H25.668V41.7292C25.668 41.8808 25.62 42.0009 25.5239 42.0897C25.4277 42.1821 25.2983 42.2283 25.1357 42.2283ZM33.3199 42.2283C33.2275 42.2283 33.1517 42.2006 33.0925 42.1451C33.0334 42.0933 32.989 41.9806 32.9594 41.8068C32.9336 41.6331 32.9206 41.3669 32.9206 41.0083L33.0426 41.2966C32.8097 41.6183 32.5176 41.8419 32.1664 41.9676C31.8189 42.0897 31.4085 42.1507 30.9353 42.1507H29.9038C29.5008 42.1507 29.1718 42.0176 28.9167 41.7514C28.6653 41.4815 28.5396 41.0748 28.5396 40.5313C28.5396 40.1912 28.5951 39.9047 28.706 39.6718C28.8169 39.4352 28.9888 39.2448 29.2217 39.1006C29.4546 38.9527 29.7522 38.8455 30.1146 38.7789C30.4769 38.7124 30.9094 38.6791 31.4122 38.6791H33.2866L32.8652 39.0562V38.2355C32.8652 38.0728 32.8374 37.9656 32.782 37.9138C32.7302 37.8621 32.6138 37.8362 32.4326 37.8362H30.8688C30.4954 37.8362 30.2088 37.8454 30.0092 37.8639C29.8132 37.8824 29.6765 37.9194 29.5988 37.9748C29.5212 38.0266 29.4787 38.1024 29.4713 38.2022C29.4565 38.3944 29.4214 38.5368 29.3659 38.6292C29.3104 38.7216 29.1903 38.7678 29.0054 38.7678C28.6949 38.7678 28.5396 38.5682 28.5396 38.1689C28.5396 37.729 28.7226 37.4092 29.0886 37.2095C29.4546 37.0062 30.0221 36.9045 30.7911 36.9045H32.5102C32.9835 36.9045 33.3162 37.0173 33.5085 37.2428C33.7007 37.4683 33.7968 37.8584 33.7968 38.4129V41.6959C33.7968 42.0508 33.6379 42.2283 33.3199 42.2283ZM29.9371 41.2634H30.9353C31.634 41.2634 32.1295 41.1229 32.4215 40.8419C32.7173 40.5572 32.8652 40.1099 32.8652 39.4999L32.9317 39.5664H31.4122C30.9242 39.5664 30.5379 39.5904 30.2532 39.6385C29.9722 39.6829 29.7707 39.7716 29.6487 39.9047C29.5304 40.0378 29.4713 40.2356 29.4713 40.4981C29.4713 40.7347 29.5119 40.9214 29.5933 41.0582C29.6783 41.195 29.7929 41.2634 29.9371 41.2634ZM35.735 42.2283C35.5982 42.2283 35.4873 42.1802 35.4023 42.0841C35.3209 41.988 35.2803 41.866 35.2803 41.7181V37.3371C35.2803 37.1818 35.3246 37.058 35.4134 36.9655C35.5021 36.8731 35.6204 36.8269 35.7683 36.8269C35.9014 36.8269 36.0086 36.875 36.0899 36.9711C36.1713 37.0635 36.2119 37.1855 36.2119 37.3371V39.0562H37.2767C37.3506 39.0562 37.4393 39.0008 37.5429 38.8899C37.6501 38.7789 37.8017 38.5774 37.9976 38.2854C38.1492 38.0673 38.3211 37.8473 38.5133 37.6255C38.7093 37.4036 38.9588 37.2132 39.262 37.0543C39.5689 36.8953 39.909 36.8158 40.2824 36.8158C40.4561 36.8158 40.5948 36.8565 40.6983 36.9378C40.8055 37.0191 40.8591 37.1337 40.8591 37.2816C40.8591 37.4369 40.8092 37.5534 40.7094 37.631C40.6133 37.7086 40.4709 37.7475 40.2824 37.7475C40.0901 37.7475 39.9016 37.8214 39.7167 37.9693C39.5356 38.1172 39.3138 38.3778 39.0513 38.7512C38.9847 38.8436 38.92 38.9305 38.8572 39.0119C38.798 39.0895 38.7407 39.1616 38.6853 39.2281C38.6335 39.291 38.5817 39.3483 38.53 39.4C38.8183 39.5257 39.079 39.6995 39.3119 39.9213C39.5485 40.1432 39.7075 40.3687 39.7888 40.5979C39.8776 40.8271 39.9644 41.0009 40.0495 41.1192C40.1345 41.2375 40.2121 41.2966 40.2824 41.2966C40.4561 41.2966 40.5948 41.3391 40.6983 41.4242C40.8055 41.5092 40.8591 41.622 40.8591 41.7625C40.8591 42.073 40.6669 42.2283 40.2824 42.2283C40.0236 42.2283 39.7999 42.1895 39.6114 42.1118C39.4228 42.0342 39.2731 41.9159 39.1622 41.7569C39.0513 41.6053 38.9607 41.4575 38.8904 41.3133C38.8202 41.1691 38.7389 41.0231 38.6464 40.8752C38.554 40.7236 38.4191 40.5702 38.2416 40.4149C37.9348 40.1302 37.4061 39.9879 36.6556 39.9879H36.2119V41.7292C36.2119 41.8808 36.1694 42.0009 36.0844 42.0897C35.9993 42.1821 35.8829 42.2283 35.735 42.2283ZM44.0578 42.2283C43.7177 42.2283 43.5476 42.0619 43.5476 41.7292V37.8362H41.9505C41.5882 37.8362 41.407 37.6809 41.407 37.3704C41.407 37.0598 41.5882 36.9045 41.9505 36.9045H46.1762C46.5385 36.9045 46.7197 37.0598 46.7197 37.3704C46.7197 37.6809 46.5385 37.8362 46.1762 37.8362H44.5902V41.7292C44.5902 41.8808 44.5421 42.0009 44.446 42.0897C44.3499 42.1821 44.2205 42.2283 44.0578 42.2283ZM47.6281 42.1507V37.3704C47.6281 37.008 47.7834 36.8269 48.0939 36.8269C48.4045 36.8269 48.5598 37.008 48.5598 37.3704V38.9786H50.9444C51.3695 38.9786 51.7282 39.0414 52.0202 39.1671C52.316 39.2891 52.5415 39.4684 52.6968 39.7051C52.8521 39.938 52.9297 40.2245 52.9297 40.5646C52.9297 40.901 52.8521 41.1876 52.6968 41.4242C52.5452 41.6571 52.3215 41.8346 52.0258 41.9566C51.73 42.0786 51.3695 42.1433 50.9444 42.1507H47.6281ZM48.5598 41.219H50.8446C51.144 41.219 51.4102 41.182 51.6431 41.1081C51.8797 41.0304 51.998 40.8678 51.998 40.6201C51.998 40.4167 51.9537 40.2652 51.8649 40.1653C51.7799 40.0618 51.6505 39.9934 51.4768 39.9601C51.3067 39.9269 51.096 39.9102 50.8446 39.9102H48.5598V41.219ZM53.6839 42.3947C53.3807 42.3947 53.2292 42.2172 53.2292 41.8623V37.204C53.2292 37.0376 53.2698 36.9064 53.3512 36.8103C53.4362 36.7104 53.5508 36.6605 53.695 36.6605C53.8392 36.6605 53.9519 36.7104 54.0333 36.8103C54.1183 36.9064 54.1608 37.0376 54.1608 37.204V41.8623C54.1608 42.2172 54.0018 42.3947 53.6839 42.3947Z" fill="white"/>
</svg>
