<svg width="174" height="21" viewBox="0 0 174 21" fill="none" xmlns="http://www.w3.org/2000/svg">
<g clip-path="url(#clip0_31_240)">
<path d="M0 0.376991V20.6223H29.9632V0.376991H0Z" fill="white"/>
<path d="M0 0.377289H29.9632V20.6229H0V0.377289Z" fill="#0052B4"/>
<path d="M0 0.377289H29.9632V7.1256H0V0.377289Z" fill="white"/>
<path d="M0 13.874H29.9632V20.6223H0V13.874Z" fill="#D80027"/>
</g>
<g clip-path="url(#clip1_31_240)">
<path d="M70.9632 0.377289H100.926V20.6229H70.9632V0.377289Z" fill="white"/>
<path d="M87.8175 0.376877H84.0721V8.60154H70.9632V12.3976H84.0721V20.6222H87.8175V12.3976H100.926V8.60154H87.8175V0.376877Z" fill="#D80027"/>
<path d="M94.0082 14.0207L100.926 17.9161V14.0207H94.0082ZM89.2017 14.0207L100.926 20.6224V18.7556L92.5172 14.0207H89.2017ZM97.8033 20.6224L89.2017 15.7787V20.6224H97.8033Z" fill="#0052B4"/>
<path d="M89.2017 14.0207L100.926 20.6225V18.7557L92.5172 14.0207H89.2017Z" fill="white"/>
<path d="M89.2017 14.0207L100.926 20.6225V18.7557L92.5172 14.0207H89.2017Z" fill="#D80027"/>
<path d="M76.2501 14.0206L70.9632 16.9975V14.0206H76.2501ZM82.6879 14.8601V20.6224H72.455L82.6879 14.8601Z" fill="#0052B4"/>
<path d="M79.3724 14.0207L70.9632 18.7557V20.6225L82.6879 14.0207H79.3724Z" fill="#D80027"/>
<path d="M77.8814 6.97862L70.9632 3.0832V6.97862H77.8814ZM82.6879 6.97862L70.9632 0.376877V2.24369L79.3724 6.97862H82.6879ZM74.0863 0.376877L82.6879 5.22059V0.376877H74.0863Z" fill="#0052B4"/>
<path d="M82.6879 6.97862L70.9632 0.376877V2.24369L79.3724 6.97862H82.6879Z" fill="white"/>
<path d="M82.6879 6.97862L70.9632 0.376877V2.24369L79.3724 6.97862H82.6879Z" fill="#D80027"/>
<path d="M95.6395 6.97898L100.926 4.00208V6.97898H95.6395ZM89.2017 6.13947V0.377178H99.4346L89.2017 6.13947Z" fill="#0052B4"/>
<path d="M92.5172 6.97888L100.926 2.24394V0.377129L89.2017 6.97888H92.5172Z" fill="#D80027"/>
</g>
<g clip-path="url(#clip2_31_240)">
<path d="M141.926 0.377289H173.509V20.6227H141.926V0.377289Z" fill="#D80027"/>
<path d="M155.889 14.5372L155.292 13.6138L154.19 13.8742L154.923 13.0395L154.326 12.1161L155.378 12.5245L156.105 11.6899L156.025 12.7791L157.078 13.1875L155.976 13.448L155.889 14.5372ZM159.817 5.23146L159.195 6.14309L159.91 6.98961L158.82 6.70546L158.198 7.62302L158.136 6.53379L157.047 6.24965L158.106 5.85894L158.044 4.76972L158.758 5.61624L159.817 5.23146ZM156.468 1.8809L156.345 2.96421L157.379 3.41411L156.271 3.63905L156.148 4.72236L155.581 3.77521L154.479 4.00016L155.237 3.18916L154.67 2.24792L155.705 2.6919L156.468 1.8809ZM159.953 9.95538L159.035 10.6006L159.392 11.6366L158.475 10.9973L157.558 11.6484L157.902 10.6066L156.985 9.97314L158.118 9.96722L158.463 8.92535L158.82 9.9613L159.953 9.95538ZM149.006 3.11812L150.071 6.28516H153.531L150.736 8.23275L151.801 11.3998L149.006 9.44629L146.205 11.3998L147.276 8.23275L144.475 6.28516H147.941L149.006 3.11812Z" fill="#FFDA44"/>
</g>
<defs>
<clipPath id="clip0_31_240">
<rect width="29.9632" height="20.2454" fill="white" transform="translate(0 0.377289)"/>
</clipPath>
<clipPath id="clip1_31_240">
<rect width="29.9632" height="20.2454" fill="white" transform="translate(70.9632 0.377289)"/>
</clipPath>
<clipPath id="clip2_31_240">
<rect width="31.5828" height="20.2454" fill="white" transform="translate(141.926 0.377289)"/>
</clipPath>
</defs>
</svg>
