<svg width="31" height="21" viewBox="0 0 31 21" fill="none" xmlns="http://www.w3.org/2000/svg">
<g clip-path="url(#clip0_31_242)">
<path d="M0.963196 0.254589H30.9264V20.5002H0.963196V0.254589Z" fill="white"/>
<path d="M17.8175 0.254177H14.0721V8.47884H0.963196V12.2749H14.0721V20.4995H17.8175V12.2749H30.9264V8.47884H17.8175V0.254177Z" fill="#D80027"/>
<path d="M24.0082 13.898L30.9264 17.7934V13.898H24.0082ZM19.2017 13.898L30.9264 20.4997V18.6329L22.5172 13.898H19.2017ZM27.8033 20.4997L19.2017 15.656V20.4997H27.8033Z" fill="#0052B4"/>
<path d="M19.2017 13.898L30.9264 20.4998V18.633L22.5172 13.898H19.2017Z" fill="white"/>
<path d="M19.2017 13.898L30.9264 20.4998V18.633L22.5172 13.898H19.2017Z" fill="#D80027"/>
<path d="M6.25012 13.8979L0.963196 16.8748V13.8979H6.25012ZM12.6879 14.7374V20.4997H2.45498L12.6879 14.7374Z" fill="#0052B4"/>
<path d="M9.37238 13.898L0.963196 18.633V20.4998L12.6879 13.898H9.37238Z" fill="#D80027"/>
<path d="M7.88136 6.85592L0.963196 2.9605V6.85592H7.88136ZM12.6879 6.85592L0.963196 0.254177V2.12099L9.37238 6.85592H12.6879ZM4.08627 0.254177L12.6879 5.09789V0.254177H4.08627Z" fill="#0052B4"/>
<path d="M12.6879 6.85592L0.963196 0.254177V2.12099L9.37238 6.85592H12.6879Z" fill="white"/>
<path d="M12.6879 6.85592L0.963196 0.254177V2.12099L9.37238 6.85592H12.6879Z" fill="#D80027"/>
<path d="M25.6395 6.85628L30.9264 3.87938V6.85628H25.6395ZM19.2017 6.01677V0.254478H29.4346L19.2017 6.01677Z" fill="#0052B4"/>
<path d="M22.5172 6.85618L30.9264 2.12124V0.254429L19.2017 6.85618H22.5172Z" fill="#D80027"/>
</g>
<defs>
<clipPath id="clip0_31_242">
<rect width="29.9632" height="20.2454" fill="white" transform="translate(0.963196 0.254589)"/>
</clipPath>
</defs>
</svg>
