<svg width="144" height="40" viewBox="0 0 144 40" fill="none" xmlns="http://www.w3.org/2000/svg">
<path d="M6.60479 15.6221H10.3789C10.9001 15.6221 11.3225 15.2108 11.3225 14.7032C11.3225 14.1957 10.9 13.7843 10.3789 13.7843H6.60479C6.08367 13.7843 5.66128 14.1957 5.66128 14.7032C5.66128 15.2108 6.08378 15.6221 6.60479 15.6221Z" fill="#F5F5F5"/>
<path d="M55.6694 5.5135H51.8952V1.83783H55.6694C56.1905 1.83783 56.6129 1.42646 56.6129 0.918917C56.6129 0.411375 56.1905 0 55.6694 0H0.943511C0.422385 0 0 0.411375 0 0.918917C0 1.42646 0.422385 1.83783 0.943511 1.83783H4.71767V5.5135H0.943511C0.422385 5.5135 0 5.92488 0 6.43242V10.1082C0 10.6157 0.422385 11.0271 0.943511 11.0271H1.88691V33.0822C1.88691 33.5897 2.3093 34.0011 2.83042 34.0011H12.2659C12.787 34.0011 13.2094 33.5897 13.2094 33.0822C13.2094 24.9553 19.9617 18.379 28.3061 18.379C36.6512 18.379 43.4028 24.955 43.4028 33.0822C43.4028 33.5897 43.8252 34.0011 44.3463 34.0011H53.7818C54.3029 34.0011 54.7253 33.5897 54.7253 33.0822V11.0272H55.6689C56.1901 11.0272 56.6124 10.6157 56.6124 10.1083V6.43253C56.6129 5.92488 56.1905 5.5135 55.6694 5.5135ZM52.8386 32.1633H45.2645C44.7757 23.4492 37.3771 16.541 28.3063 16.541C19.2362 16.541 11.8371 23.4494 11.3482 32.1633H3.77415V11.0273H52.8386V32.1633ZM50.0081 5.5135H46.2339V1.83783H50.0081V5.5135ZM40.5725 5.5135V1.83783H44.3467V5.5135H40.5725ZM34.9112 5.5135V1.83783H38.6854V5.5135H34.9112ZM29.2499 5.5135V1.83783H33.0241V5.5135H29.2499ZM23.5887 5.5135V1.83783H27.3628V5.5135H23.5887ZM17.9274 5.5135V1.83783H21.7015V5.5135H17.9274ZM12.2661 5.5135V1.83783H16.0402V5.5135H12.2661ZM6.6048 1.83783H10.379V5.5135H6.6048V1.83783ZM54.7257 9.18928H1.88713V7.35134H5.65764C5.65886 7.35134 5.66007 7.35155 5.6614 7.35155C5.66272 7.35155 5.66383 7.35134 5.66516 7.35134H11.3189C11.3201 7.35134 11.3214 7.35155 11.3227 7.35155C11.324 7.35155 11.3251 7.35134 11.3264 7.35134H16.9802C16.9814 7.35134 16.9826 7.35155 16.984 7.35155C16.9853 7.35155 16.9864 7.35134 16.9877 7.35134H22.6415C22.6427 7.35134 22.6439 7.35155 22.6453 7.35155C22.6466 7.35155 22.6477 7.35134 22.649 7.35134H28.3028C28.304 7.35134 28.3052 7.35155 28.3065 7.35155C28.3079 7.35155 28.309 7.35134 28.3103 7.35134H33.9641C33.9653 7.35134 33.9665 7.35155 33.9678 7.35155C33.9692 7.35155 33.9703 7.35134 33.9716 7.35134H39.6254C39.6266 7.35134 39.6278 7.35155 39.6291 7.35155C39.6305 7.35155 39.6316 7.35134 39.6329 7.35134H45.2866C45.2879 7.35134 45.2891 7.35155 45.2904 7.35155C45.2917 7.35155 45.2928 7.35134 45.2942 7.35134H50.9479C50.9492 7.35134 50.9504 7.35155 50.9517 7.35155C50.953 7.35155 50.9541 7.35134 50.9555 7.35134H54.7259L54.7257 9.18928Z" fill="#F5F5F5"/>
<path d="M8.49193 19.2979C8.49193 19.8054 8.91432 20.2168 9.43544 20.2168H13.2096C13.7307 20.2168 14.1531 19.8054 14.1531 19.2979C14.1531 18.7904 13.7307 18.379 13.2096 18.379H9.43544C8.91432 18.379 8.49193 18.7905 8.49193 19.2979Z" fill="#F5F5F5"/>
<path d="M46.2338 15.6221H50.008C50.5291 15.6221 50.9515 15.2108 50.9515 14.7032C50.9515 14.1957 50.529 13.7843 50.008 13.7843H46.2338C45.7127 13.7843 45.2903 14.1957 45.2903 14.7032C45.2903 15.2108 45.7128 15.6221 46.2338 15.6221Z" fill="#F5F5F5"/>
<path d="M43.4032 20.2169H47.1773C47.6984 20.2169 48.1208 19.8056 48.1208 19.298C48.1208 18.7905 47.6984 18.3791 47.1773 18.3791H43.4032C42.882 18.3791 42.4597 18.7905 42.4597 19.298C42.4597 19.8056 42.8821 20.2169 43.4032 20.2169Z" fill="#F5F5F5"/>
<path d="M55.777 33.8211C55.2728 33.8211 55.0207 33.569 55.0207 33.0647V16.1821C55.0207 15.6778 55.2728 15.4257 55.777 15.4257H63.2265C64.6251 15.4257 65.6811 15.7825 66.3947 16.496C67.1178 17.2001 67.4793 18.2371 67.4793 19.6071V20.3778C67.4793 21.8715 66.9988 22.9275 66.0379 23.5459C67.7029 24.231 68.5353 25.7151 68.5353 27.9985V28.8976C68.5353 30.515 68.1167 31.7423 67.2795 32.5795C66.4518 33.4072 65.2245 33.8211 63.5976 33.8211H55.777ZM56.5191 32.3226H63.5976C64.8058 32.3226 65.6811 32.0515 66.2234 31.5092C66.7657 30.9669 67.0369 30.0963 67.0369 28.8976V27.9985C67.0369 26.7997 66.7657 25.934 66.2234 25.4012C65.6906 24.8684 64.8154 24.602 63.5976 24.602H56.5191V32.3226ZM56.5191 23.1035H63.4406C64.3064 23.1035 64.9438 22.8847 65.3529 22.4471C65.7715 21.9999 65.9808 21.3101 65.9808 20.3778V19.6071C65.9808 18.6557 65.762 17.9707 65.3244 17.5521C64.8962 17.1335 64.1969 16.9242 63.2265 16.9242H56.5191V23.1035ZM71.4785 33.8211C70.9743 33.8211 70.7222 33.569 70.7222 33.0647V21.077C70.7222 20.5823 70.9743 20.335 71.4785 20.335C71.9733 20.335 72.2206 20.5823 72.2206 21.077V23.2748C72.7153 22.3234 73.4289 21.5956 74.3613 21.0913C75.3032 20.5871 76.4163 20.335 77.7007 20.335C78.2049 20.335 78.4571 20.5823 78.4571 21.077C78.4571 21.5813 78.2049 21.8334 77.7007 21.8334C76.0072 21.8334 74.6943 22.2187 73.7619 22.9894C72.8295 23.7505 72.3158 24.8398 72.2206 26.2574V33.0647C72.2206 33.569 71.9733 33.8211 71.4785 33.8211ZM79.9114 17.7376C79.2549 17.7376 78.9267 17.3999 78.9267 16.7244V16.0822C78.9267 15.4257 79.2549 15.0975 79.9114 15.0975H80.5536C81.191 15.0975 81.5097 15.4257 81.5097 16.0822V16.7244C81.5097 17.3999 81.191 17.7376 80.5536 17.7376H79.9114ZM80.2396 33.8211C79.7354 33.8211 79.4832 33.569 79.4832 33.0647V21.077C79.4832 20.5823 79.7354 20.335 80.2396 20.335C80.7343 20.335 80.9817 20.5823 80.9817 21.077V33.0647C80.9817 33.569 80.7343 33.8211 80.2396 33.8211ZM89.0807 33.8211C87.3016 33.8211 85.9982 33.4072 85.1705 32.5795C84.3428 31.7518 83.9289 30.4484 83.9289 28.6692V25.4725C83.9289 23.6934 84.3428 22.3947 85.1705 21.5765C85.9982 20.7488 87.3016 20.335 89.0807 20.335H95.0603V14.7692C95.0603 14.2745 95.3124 14.0272 95.8167 14.0272C96.3114 14.0272 96.5588 14.2745 96.5588 14.7692V33.0647C96.5588 33.569 96.3114 33.8211 95.8167 33.8211C95.3124 33.8211 95.0603 33.569 95.0603 33.0647V31.8374C94.6512 32.4939 94.0518 32.9886 93.2622 33.3216C92.4725 33.6546 91.4402 33.8211 90.1653 33.8211H89.0807ZM89.0807 32.3226H90.1653C91.6495 32.3226 92.834 32.0895 93.7188 31.6234C94.6131 31.1477 95.0603 30.4389 95.0603 29.497V21.8334H89.0807C87.7202 21.8334 86.7688 22.1046 86.2265 22.6469C85.6937 23.1797 85.4274 24.1215 85.4274 25.4725V28.6692C85.4274 30.0298 85.6937 30.9812 86.2265 31.5235C86.7688 32.0562 87.7202 32.3226 89.0807 32.3226ZM102.936 39.5295C101.813 39.5295 100.957 39.2964 100.367 38.8302C99.777 38.3736 99.4298 37.6505 99.3251 36.661C99.2966 36.4137 99.3489 36.2186 99.4821 36.0759C99.6153 35.9332 99.8008 35.8619 100.039 35.8619C100.277 35.8619 100.457 35.9237 100.581 36.0474C100.705 36.1711 100.786 36.3566 100.824 36.6039C100.89 37.1558 101.085 37.5316 101.409 37.7314C101.732 37.9312 102.241 38.0311 102.936 38.0311H108.245C109.082 38.0311 109.648 37.8788 109.943 37.5744C110.247 37.2699 110.399 36.6991 110.399 35.8619V31.7803C109.962 32.4463 109.343 32.9553 108.544 33.3073C107.745 33.6498 106.732 33.8211 105.504 33.8211H104.42C102.641 33.8211 101.337 33.412 100.51 32.5938C99.6819 31.7661 99.268 30.4674 99.268 28.6978V25.4725C99.268 23.6744 99.6771 22.371 100.495 21.5623C101.323 20.7441 102.631 20.335 104.42 20.335H106.76C107.693 20.335 108.449 20.4586 109.029 20.706C109.61 20.9534 110.066 21.3387 110.399 21.862V21.077C110.399 20.5823 110.652 20.335 111.156 20.335C111.651 20.335 111.898 20.5823 111.898 21.077V35.8619C111.898 37.1177 111.603 38.0406 111.013 38.6304C110.423 39.2298 109.5 39.5295 108.245 39.5295H102.936ZM104.42 32.3226H105.504C106.989 32.3226 108.173 32.0895 109.058 31.6234C109.952 31.1572 110.399 30.4484 110.399 29.497V24.7304C110.399 23.6554 110.1 22.9037 109.5 22.4756C108.901 22.0475 107.988 21.8334 106.76 21.8334H104.42C103.059 21.8334 102.108 22.0998 101.566 22.6326C101.033 23.1559 100.766 24.1025 100.766 25.4725V28.6978C100.766 30.0393 101.033 30.9812 101.566 31.5235C102.108 32.0562 103.059 32.3226 104.42 32.3226ZM116.106 27.656V28.6978C116.106 30.0393 116.372 30.9812 116.905 31.5235C117.447 32.0562 118.399 32.3226 119.759 32.3226H122.099C123.298 32.3226 124.169 32.1704 124.711 31.866C125.263 31.552 125.591 31.0145 125.696 30.2533C125.734 30.0155 125.81 29.8347 125.924 29.711C126.048 29.5873 126.233 29.5255 126.481 29.5255C126.728 29.5255 126.914 29.5969 127.037 29.7396C127.17 29.8728 127.223 30.0631 127.194 30.3104C127.071 31.5092 126.59 32.394 125.753 32.9648C124.916 33.5357 123.698 33.8211 122.099 33.8211H119.759C117.98 33.8211 116.676 33.412 115.849 32.5938C115.021 31.7661 114.607 30.4674 114.607 28.6978V25.4725C114.607 23.6744 115.021 22.3662 115.849 21.548C116.676 20.7203 117.98 20.3159 119.759 20.335H122.099C123.879 20.335 125.177 20.7488 125.995 21.5765C126.823 22.3947 127.237 23.6934 127.237 25.4725V26.8996C127.237 27.4039 126.99 27.656 126.495 27.656H116.106ZM119.759 21.8334C118.399 21.8144 117.447 22.076 116.905 22.6183C116.372 23.1511 116.106 24.1025 116.106 25.4725V26.1575H125.739V25.4725C125.739 24.112 125.472 23.1654 124.939 22.6326C124.407 22.0998 123.46 21.8334 122.099 21.8334H119.759ZM133.146 33.7926C131.976 33.7926 131.082 33.5452 130.463 33.0505C129.845 32.5462 129.474 31.7803 129.35 30.7528C129.322 30.5055 129.374 30.3152 129.507 30.182C129.64 30.0393 129.835 29.9679 130.092 29.9679C130.33 29.9679 130.506 30.0298 130.62 30.1534C130.744 30.2771 130.825 30.4626 130.863 30.71C130.949 31.2999 131.163 31.7137 131.505 31.9516C131.857 32.1799 132.404 32.2941 133.146 32.2941H137.827C138.712 32.2941 139.321 32.1276 139.654 31.7946C139.987 31.4616 140.153 30.8527 140.153 29.9679C140.153 29.0736 139.987 28.4599 139.654 28.1269C139.321 27.794 138.712 27.6275 137.827 27.6275H133.203C131.967 27.6275 131.044 27.3325 130.435 26.7427C129.835 26.1433 129.536 25.2252 129.536 23.9883C129.536 22.723 129.835 21.7954 130.435 21.2055C131.034 20.6061 131.957 20.3064 133.203 20.3064H137.685C139.835 20.3064 141.029 21.2578 141.267 23.1606C141.305 23.408 141.252 23.603 141.11 23.7457C140.976 23.8789 140.786 23.9455 140.539 23.9455C140.301 23.9455 140.12 23.8837 139.996 23.76C139.882 23.6363 139.801 23.4556 139.754 23.2177C139.687 22.6849 139.492 22.3186 139.169 22.1188C138.855 21.9095 138.36 21.8049 137.685 21.8049H133.203C132.376 21.8049 131.805 21.9571 131.491 22.2615C131.186 22.566 131.034 23.1416 131.034 23.9883C131.034 24.797 131.191 25.3584 131.505 25.6723C131.819 25.9768 132.385 26.129 133.203 26.129H137.827C139.14 26.129 140.106 26.443 140.724 27.0709C141.343 27.6893 141.652 28.655 141.652 29.9679C141.652 31.2713 141.343 32.237 140.724 32.8649C140.106 33.4833 139.14 33.7926 137.827 33.7926H133.146Z" fill="#F5F5F5"/>
</svg>
