<svg width="56" height="45" viewBox="0 0 56 45" fill="none" xmlns="http://www.w3.org/2000/svg">
<path d="M29.0026 17.3129C31.2665 17.3129 33.1018 15.5122 33.1018 13.2909C33.1018 11.0695 31.2665 9.2688 29.0026 9.2688C26.7387 9.2688 24.9034 11.0695 24.9034 13.2909C24.9034 15.5122 26.7387 17.3129 29.0026 17.3129Z" stroke="white" stroke-width="1.61579"/>
<path d="M17.9926 10.9446C20.5809 -0.219153 37.4376 -0.206262 40.0127 10.9575C41.5237 17.5063 37.3719 23.0495 33.7325 26.4785C31.0917 28.9794 26.9136 28.9794 24.2597 26.4785C20.6334 23.0495 16.4817 17.4934 17.9926 10.9446Z" stroke="white" stroke-width="1.61579"/>
<path d="M12.8077 42.157C12.6709 42.157 12.56 42.1108 12.4749 42.0183C12.3936 41.9259 12.3529 41.8021 12.3529 41.6468V35.6908C12.3529 35.5392 12.3954 35.4117 12.4805 35.3082C12.5655 35.201 12.6857 35.1474 12.8409 35.1474C13.1367 35.1474 13.2846 35.3285 13.2846 35.6908V38.264H14.1719C14.2717 38.264 14.3845 38.2141 14.5102 38.1142C14.6359 38.0107 14.7837 37.8444 14.9538 37.6151C15.1239 37.3822 15.3254 37.0698 15.5583 36.6779C15.6359 36.5485 15.7302 36.397 15.8411 36.2232C15.952 36.0457 16.0796 35.8757 16.2237 35.713C16.3716 35.5466 16.538 35.4098 16.7228 35.3026C16.9114 35.1917 17.1184 35.1363 17.3439 35.1363C17.7284 35.1363 17.9207 35.3026 17.9207 35.6354C17.9207 35.8128 17.8652 35.9237 17.7543 35.9681C17.6471 36.0125 17.5103 36.0457 17.3439 36.0679C17.185 36.0901 17.0408 36.1807 16.9114 36.3397C16.7857 36.4949 16.623 36.7334 16.4234 37.055C16.2533 37.3323 16.1165 37.5541 16.013 37.7205C15.9132 37.8869 15.8245 38.0255 15.7468 38.1364C15.6692 38.2473 15.5768 38.3564 15.4695 38.4636C15.366 38.5671 15.2218 38.6965 15.037 38.8518L15.0148 38.5634C15.244 38.7483 15.4455 38.9424 15.6193 39.1457C15.7967 39.3454 15.9539 39.545 16.0906 39.7446C16.2274 39.9443 16.3531 40.1347 16.4677 40.3158C16.6637 40.6153 16.8227 40.8353 16.9447 40.9758C17.0704 41.1126 17.2072 41.1957 17.355 41.2253C17.4105 41.2364 17.4826 41.2512 17.5713 41.2697C17.6637 41.2845 17.7451 41.3233 17.8153 41.3861C17.8856 41.449 17.9207 41.5544 17.9207 41.7022C17.9207 42.0054 17.7395 42.157 17.3772 42.157C17.1073 42.157 16.8282 42.0682 16.5398 41.8908C16.2552 41.7096 15.9797 41.4397 15.7135 41.0811C15.6544 40.9961 15.5638 40.8667 15.4418 40.6929C15.3235 40.5155 15.2144 40.3528 15.1146 40.2049C14.8891 39.8648 14.695 39.6115 14.5323 39.4452C14.3734 39.2788 14.2162 39.1956 14.061 39.1956H13.2846V41.6468C13.2846 41.7947 13.2402 41.9167 13.1515 42.0128C13.0665 42.1089 12.9518 42.157 12.8077 42.157ZM23.7126 42.157C23.6202 42.157 23.5444 42.1292 23.4852 42.0738C23.4261 42.022 23.3817 41.9093 23.3522 41.7355C23.3263 41.5617 23.3133 41.2956 23.3133 40.9369L23.4353 41.2253C23.2024 41.547 22.9104 41.7706 22.5591 41.8963C22.2116 42.0183 21.8012 42.0793 21.328 42.0793H20.2965C19.8936 42.0793 19.5645 41.9462 19.3094 41.6801C19.058 41.4102 18.9323 41.0035 18.9323 40.46C18.9323 40.1199 18.9878 39.8334 19.0987 39.6005C19.2096 39.3638 19.3815 39.1734 19.6144 39.0293C19.8473 38.8814 20.145 38.7742 20.5073 38.7076C20.8696 38.6411 21.3021 38.6078 21.8049 38.6078H23.6793L23.2579 38.9849V38.1642C23.2579 38.0015 23.2301 37.8943 23.1747 37.8425C23.1229 37.7907 23.0065 37.7649 22.8253 37.7649H21.2615C20.8881 37.7649 20.6015 37.7741 20.4019 37.7926C20.206 37.8111 20.0692 37.8481 19.9915 37.9035C19.9139 37.9553 19.8714 38.0311 19.864 38.1309C19.8492 38.3231 19.8141 38.4655 19.7586 38.5579C19.7032 38.6503 19.583 38.6965 19.3982 38.6965C19.0876 38.6965 18.9323 38.4969 18.9323 38.0976C18.9323 37.6577 19.1153 37.3379 19.4813 37.1382C19.8473 36.9349 20.4148 36.8332 21.1838 36.8332H22.903C23.3762 36.8332 23.7089 36.946 23.9012 37.1715C24.0934 37.397 24.1895 37.7871 24.1895 38.3416V41.6246C24.1895 41.9795 24.0306 42.157 23.7126 42.157ZM20.3298 41.192H21.328C22.0268 41.192 22.5222 41.0516 22.8142 40.7706C23.11 40.4859 23.2579 40.0386 23.2579 39.4285L23.3244 39.4951H21.8049C21.3169 39.4951 20.9306 39.5191 20.6459 39.5672C20.3649 39.6115 20.1634 39.7003 20.0414 39.8334C19.9231 39.9665 19.864 40.1643 19.864 40.4268C19.864 40.6634 19.9046 40.8501 19.986 40.9869C20.071 41.1236 20.1856 41.192 20.3298 41.192ZM26.1277 44.0979C25.8246 44.0979 25.673 43.9094 25.673 43.5323V37.288C25.673 36.933 25.832 36.7556 26.1499 36.7556C26.3163 36.7556 26.4309 36.8073 26.4937 36.9109C26.5603 37.0144 26.5935 37.1918 26.5935 37.4432V37.776L26.4272 37.5541C26.6601 37.299 26.954 37.116 27.3089 37.0051C27.6675 36.8905 28.0798 36.8332 28.5456 36.8332H28.8672C29.5771 36.8332 30.1409 36.8979 30.5586 37.0273C30.9764 37.1567 31.2759 37.3711 31.457 37.6706C31.6382 37.9664 31.7288 38.3675 31.7288 38.874V40.0386C31.7288 40.5451 31.6382 40.948 31.457 41.2475C31.2759 41.5433 30.9783 41.7558 30.5642 41.8852C30.1538 42.0146 29.5993 42.0793 28.9005 42.0793H26.6046V43.5323C26.6046 43.9094 26.4457 44.0979 26.1277 44.0979ZM26.6046 41.1477H28.9005C29.4477 41.1477 29.8562 41.1218 30.1261 41.07C30.396 41.0146 30.5753 40.9055 30.664 40.7428C30.7527 40.5765 30.7971 40.3306 30.7971 40.0053V38.9073C30.7971 38.5782 30.7509 38.3324 30.6585 38.1697C30.5697 38.007 30.3867 37.8998 30.1094 37.8481C29.8359 37.7926 29.4218 37.7649 28.8672 37.7649H28.5456C27.8764 37.7649 27.3847 37.9017 27.0705 38.1752C26.7599 38.4451 26.6046 38.8666 26.6046 39.4396V41.1477ZM35.1329 42.157C34.7927 42.157 34.6227 41.9906 34.6227 41.6579V37.7649H33.0256C32.6632 37.7649 32.4821 37.6096 32.4821 37.299C32.4821 36.9885 32.6632 36.8332 33.0256 36.8332H37.2513C37.6136 36.8332 37.7948 36.9885 37.7948 37.299C37.7948 37.6096 37.6136 37.7649 37.2513 37.7649H35.6653V41.6579C35.6653 41.8094 35.6172 41.9296 35.5211 42.0183C35.4249 42.1108 35.2955 42.157 35.1329 42.157ZM43.3171 42.157C43.2247 42.157 43.1489 42.1292 43.0897 42.0738C43.0306 42.022 42.9862 41.9093 42.9567 41.7355C42.9308 41.5617 42.9178 41.2956 42.9178 40.9369L43.0398 41.2253C42.8069 41.547 42.5149 41.7706 42.1636 41.8963C41.8161 42.0183 41.4057 42.0793 40.9325 42.0793H39.901C39.4981 42.0793 39.169 41.9462 38.9139 41.6801C38.6625 41.4102 38.5368 41.0035 38.5368 40.46C38.5368 40.1199 38.5923 39.8334 38.7032 39.6005C38.8141 39.3638 38.986 39.1734 39.2189 39.0293C39.4518 38.8814 39.7495 38.7742 40.1118 38.7076C40.4741 38.6411 40.9066 38.6078 41.4094 38.6078H43.2838L42.8624 38.9849V38.1642C42.8624 38.0015 42.8347 37.8943 42.7792 37.8425C42.7274 37.7907 42.611 37.7649 42.4298 37.7649H40.866C40.4926 37.7649 40.206 37.7741 40.0064 37.7926C39.8105 37.8111 39.6737 37.8481 39.596 37.9035C39.5184 37.9553 39.4759 38.0311 39.4685 38.1309C39.4537 38.3231 39.4186 38.4655 39.3631 38.5579C39.3077 38.6503 39.1875 38.6965 39.0027 38.6965C38.6921 38.6965 38.5368 38.4969 38.5368 38.0976C38.5368 37.6577 38.7198 37.3379 39.0858 37.1382C39.4518 36.9349 40.0193 36.8332 40.7883 36.8332H42.5075C42.9807 36.8332 43.3134 36.946 43.5057 37.1715C43.6979 37.397 43.794 37.7871 43.794 38.3416V41.6246C43.794 41.9795 43.6351 42.157 43.3171 42.157ZM39.9343 41.192H40.9325C41.6313 41.192 42.1267 41.0516 42.4187 40.7706C42.7145 40.4859 42.8624 40.0386 42.8624 39.4285L42.9289 39.4951H41.4094C40.9214 39.4951 40.5351 39.5191 40.2504 39.5672C39.9694 39.6115 39.7679 39.7003 39.6459 39.8334C39.5276 39.9665 39.4685 40.1643 39.4685 40.4268C39.4685 40.6634 39.5092 40.8501 39.5905 40.9869C39.6755 41.1236 39.7901 41.192 39.9343 41.192Z" fill="white"/>
</svg>
