<svg width="302" height="103" viewBox="0 0 302 103" fill="none" xmlns="http://www.w3.org/2000/svg">
<g filter="url(#filter0_d_123_29)">
<path d="M40.0172 58V41.9H42.9612V53.331L51.6092 41.9H54.3922V58H51.4482V46.592L42.8002 58H40.0172ZM64.1733 58.161C62.8853 58.161 61.7353 57.8927 60.7233 57.356C59.7267 56.804 58.9447 56.0527 58.3773 55.102C57.81 54.1513 57.5263 53.0703 57.5263 51.859C57.5263 50.6323 57.81 49.5513 58.3773 48.616C58.9447 47.6653 59.7267 46.9217 60.7233 46.385C61.7353 45.8483 62.8853 45.58 64.1733 45.58C65.3693 45.58 66.4197 45.8253 67.3243 46.316C68.2443 46.7913 68.942 47.4967 69.4173 48.432L67.2093 49.72C66.8413 49.1373 66.389 48.708 65.8523 48.432C65.331 48.156 64.7637 48.018 64.1503 48.018C63.445 48.018 62.8087 48.1713 62.2413 48.478C61.674 48.7847 61.2293 49.2293 60.9073 49.812C60.5853 50.3793 60.4243 51.0617 60.4243 51.859C60.4243 52.6563 60.5853 53.3463 60.9073 53.929C61.2293 54.4963 61.674 54.9333 62.2413 55.24C62.8087 55.5467 63.445 55.7 64.1503 55.7C64.7637 55.7 65.331 55.562 65.8523 55.286C66.389 55.01 66.8413 54.5807 67.2093 53.998L69.4173 55.286C68.942 56.206 68.2443 56.919 67.3243 57.425C66.4197 57.9157 65.3693 58.161 64.1733 58.161ZM77.3579 58.161C76.0699 58.161 74.9199 57.8927 73.9079 57.356C72.9112 56.804 72.1292 56.0527 71.5619 55.102C70.9946 54.1513 70.7109 53.0703 70.7109 51.859C70.7109 50.6323 70.9946 49.5513 71.5619 48.616C72.1292 47.6653 72.9112 46.9217 73.9079 46.385C74.9199 45.8483 76.0699 45.58 77.3579 45.58C78.5539 45.58 79.6042 45.8253 80.5089 46.316C81.4289 46.7913 82.1266 47.4967 82.6019 48.432L80.3939 49.72C80.0259 49.1373 79.5736 48.708 79.0369 48.432C78.5156 48.156 77.9482 48.018 77.3349 48.018C76.6296 48.018 75.9932 48.1713 75.4259 48.478C74.8586 48.7847 74.4139 49.2293 74.0919 49.812C73.7699 50.3793 73.6089 51.0617 73.6089 51.859C73.6089 52.6563 73.7699 53.3463 74.0919 53.929C74.4139 54.4963 74.8586 54.9333 75.4259 55.24C75.9932 55.5467 76.6296 55.7 77.3349 55.7C77.9482 55.7 78.5156 55.562 79.0369 55.286C79.5736 55.01 80.0259 54.5807 80.3939 53.998L82.6019 55.286C82.1266 56.206 81.4289 56.919 80.5089 57.425C79.6042 57.9157 78.5539 58.161 77.3579 58.161ZM83.0472 57.977L83.1852 55.562C83.2925 55.5773 83.3922 55.5927 83.4842 55.608C83.5762 55.6233 83.6605 55.631 83.7372 55.631C84.2125 55.631 84.5805 55.4853 84.8412 55.194C85.1018 54.9027 85.2935 54.5117 85.4162 54.021C85.5542 53.515 85.6462 52.9553 85.6922 52.342C85.7535 51.7133 85.7995 51.0847 85.8302 50.456L86.0372 45.718H95.9732V58H93.0982V47.374L93.7652 48.156H87.9232L88.5442 47.351L88.3832 50.594C88.3372 51.6827 88.2452 52.6947 88.1072 53.63C87.9845 54.55 87.7852 55.355 87.5092 56.045C87.2485 56.735 86.8805 57.2717 86.4052 57.655C85.9452 58.0383 85.3548 58.23 84.6342 58.23C84.4042 58.23 84.1512 58.207 83.8752 58.161C83.6145 58.115 83.3385 58.0537 83.0472 57.977ZM105.572 58.161C104.207 58.161 103.011 57.8927 101.984 57.356C100.972 56.804 100.182 56.0527 99.6151 55.102C99.0631 54.1513 98.7871 53.0703 98.7871 51.859C98.7871 50.6323 99.0554 49.5513 99.5921 48.616C100.144 47.6653 100.895 46.9217 101.846 46.385C102.812 45.8483 103.908 45.58 105.135 45.58C106.331 45.58 107.397 45.8407 108.332 46.362C109.267 46.8833 110.003 47.6193 110.54 48.57C111.077 49.5207 111.345 50.64 111.345 51.928C111.345 52.0507 111.337 52.1887 111.322 52.342C111.322 52.4953 111.314 52.641 111.299 52.779H101.064V50.87H109.781L108.654 51.468C108.669 50.7627 108.524 50.1417 108.217 49.605C107.91 49.0683 107.489 48.6467 106.952 48.34C106.431 48.0333 105.825 47.88 105.135 47.88C104.43 47.88 103.809 48.0333 103.272 48.34C102.751 48.6467 102.337 49.076 102.03 49.628C101.739 50.1647 101.593 50.801 101.593 51.537V51.997C101.593 52.733 101.762 53.3847 102.099 53.952C102.436 54.5193 102.912 54.9563 103.525 55.263C104.138 55.5697 104.844 55.723 105.641 55.723C106.331 55.723 106.952 55.6157 107.504 55.401C108.056 55.1863 108.547 54.849 108.976 54.389L110.517 56.16C109.965 56.804 109.267 57.3023 108.424 57.655C107.596 57.9923 106.645 58.161 105.572 58.161ZM122.75 56.666V48.156H118.035L117.966 50.134C117.936 50.8393 117.89 51.5217 117.828 52.181C117.767 52.825 117.667 53.423 117.529 53.975C117.391 54.5117 117.192 54.9563 116.931 55.309C116.671 55.6617 116.326 55.8917 115.896 55.999L113.044 55.562C113.504 55.562 113.872 55.4163 114.148 55.125C114.44 54.8183 114.662 54.4043 114.815 53.883C114.984 53.3463 115.107 52.7407 115.183 52.066C115.26 51.376 115.314 50.663 115.344 49.927L115.505 45.718H125.625V56.666H122.75ZM112.607 60.737V55.562H127.442V60.737H124.751V58H115.275V60.737H112.607ZM131.114 62.623C130.516 62.623 129.918 62.5233 129.32 62.324C128.722 62.1247 128.224 61.8487 127.825 61.496L128.975 59.38C129.266 59.6407 129.596 59.8477 129.964 60.001C130.332 60.1543 130.708 60.231 131.091 60.231C131.612 60.231 132.034 60.1007 132.356 59.84C132.678 59.5793 132.977 59.1423 133.253 58.529L133.966 56.919L134.196 56.574L138.842 45.718H141.602L135.852 58.989C135.469 59.909 135.039 60.6373 134.564 61.174C134.104 61.7107 133.583 62.0863 133 62.301C132.433 62.5157 131.804 62.623 131.114 62.623ZM133.644 58.437L128.101 45.718H131.091L135.599 56.321L133.644 58.437ZM143.599 58V45.718H146.474V53.814L153.259 45.718H155.881V58H153.006V49.904L146.244 58H143.599ZM149.556 44.269C148.329 44.269 147.386 43.9853 146.727 43.418C146.068 42.8353 145.73 41.992 145.715 40.888H147.624C147.639 41.44 147.808 41.877 148.13 42.199C148.467 42.521 148.935 42.682 149.533 42.682C150.116 42.682 150.576 42.521 150.913 42.199C151.266 41.877 151.45 41.44 151.465 40.888H153.42C153.405 41.992 153.06 42.8353 152.385 43.418C151.726 43.9853 150.783 44.269 149.556 44.269ZM162.301 58V47.466L162.968 48.156H157.977V45.718H169.477V48.156H164.509L165.176 47.466V58H162.301ZM176.751 58.161C175.386 58.161 174.19 57.8927 173.163 57.356C172.151 56.804 171.361 56.0527 170.794 55.102C170.242 54.1513 169.966 53.0703 169.966 51.859C169.966 50.6323 170.234 49.5513 170.771 48.616C171.323 47.6653 172.074 46.9217 173.025 46.385C173.991 45.8483 175.087 45.58 176.314 45.58C177.51 45.58 178.575 45.8407 179.511 46.362C180.446 46.8833 181.182 47.6193 181.719 48.57C182.255 49.5207 182.524 50.64 182.524 51.928C182.524 52.0507 182.516 52.1887 182.501 52.342C182.501 52.4953 182.493 52.641 182.478 52.779H172.243V50.87H180.96L179.833 51.468C179.848 50.7627 179.702 50.1417 179.396 49.605C179.089 49.0683 178.667 48.6467 178.131 48.34C177.609 48.0333 177.004 47.88 176.314 47.88C175.608 47.88 174.987 48.0333 174.451 48.34C173.929 48.6467 173.515 49.076 173.209 49.628C172.917 50.1647 172.772 50.801 172.772 51.537V51.997C172.772 52.733 172.94 53.3847 173.278 53.952C173.615 54.5193 174.09 54.9563 174.704 55.263C175.317 55.5697 176.022 55.723 176.82 55.723C177.51 55.723 178.131 55.6157 178.683 55.401C179.235 55.1863 179.725 54.849 180.155 54.389L181.696 56.16C181.144 56.804 180.446 57.3023 179.603 57.655C178.775 57.9923 177.824 58.161 176.751 58.161ZM192.025 58V45.718H201.455V48.156H194.233L194.9 47.512V58H192.025ZM208.482 58.161C207.225 58.161 206.106 57.8927 205.124 57.356C204.143 56.804 203.369 56.0527 202.801 55.102C202.234 54.1513 201.95 53.0703 201.95 51.859C201.95 50.6323 202.234 49.5513 202.801 48.616C203.369 47.6653 204.143 46.9217 205.124 46.385C206.106 45.8483 207.225 45.58 208.482 45.58C209.755 45.58 210.882 45.8483 211.863 46.385C212.86 46.9217 213.634 47.6577 214.186 48.593C214.754 49.5283 215.037 50.617 215.037 51.859C215.037 53.0703 214.754 54.1513 214.186 55.102C213.634 56.0527 212.86 56.804 211.863 57.356C210.882 57.8927 209.755 58.161 208.482 58.161ZM208.482 55.7C209.188 55.7 209.816 55.5467 210.368 55.24C210.92 54.9333 211.35 54.4887 211.656 53.906C211.978 53.3233 212.139 52.641 212.139 51.859C212.139 51.0617 211.978 50.3793 211.656 49.812C211.35 49.2293 210.92 48.7847 210.368 48.478C209.816 48.1713 209.195 48.018 208.505 48.018C207.8 48.018 207.171 48.1713 206.619 48.478C206.083 48.7847 205.653 49.2293 205.331 49.812C205.009 50.3793 204.848 51.0617 204.848 51.859C204.848 52.641 205.009 53.3233 205.331 53.906C205.653 54.4887 206.083 54.9333 206.619 55.24C207.171 55.5467 207.792 55.7 208.482 55.7ZM224.685 58.161C223.689 58.161 222.776 57.931 221.948 57.471C221.136 57.011 220.484 56.321 219.993 55.401C219.518 54.4657 219.28 53.285 219.28 51.859C219.28 50.4177 219.51 49.237 219.97 48.317C220.446 47.397 221.09 46.7147 221.902 46.27C222.715 45.81 223.643 45.58 224.685 45.58C225.897 45.58 226.962 45.8407 227.882 46.362C228.818 46.8833 229.554 47.6117 230.09 48.547C230.642 49.4823 230.918 50.5863 230.918 51.859C230.918 53.1317 230.642 54.2433 230.09 55.194C229.554 56.1293 228.818 56.8577 227.882 57.379C226.962 57.9003 225.897 58.161 224.685 58.161ZM217.877 62.462V45.718H220.614V48.616L220.522 51.882L220.752 55.148V62.462H217.877ZM224.363 55.7C225.053 55.7 225.667 55.5467 226.203 55.24C226.755 54.9333 227.192 54.4887 227.514 53.906C227.836 53.3233 227.997 52.641 227.997 51.859C227.997 51.0617 227.836 50.3793 227.514 49.812C227.192 49.2293 226.755 48.7847 226.203 48.478C225.667 48.1713 225.053 48.018 224.363 48.018C223.673 48.018 223.052 48.1713 222.5 48.478C221.948 48.7847 221.511 49.2293 221.189 49.812C220.867 50.3793 220.706 51.0617 220.706 51.859C220.706 52.641 220.867 53.3233 221.189 53.906C221.511 54.4887 221.948 54.9333 222.5 55.24C223.052 55.5467 223.673 55.7 224.363 55.7ZM239.254 58.161C237.996 58.161 236.877 57.8927 235.896 57.356C234.914 56.804 234.14 56.0527 233.573 55.102C233.005 54.1513 232.722 53.0703 232.722 51.859C232.722 50.6323 233.005 49.5513 233.573 48.616C234.14 47.6653 234.914 46.9217 235.896 46.385C236.877 45.8483 237.996 45.58 239.254 45.58C240.526 45.58 241.653 45.8483 242.635 46.385C243.631 46.9217 244.406 47.6577 244.958 48.593C245.525 49.5283 245.809 50.617 245.809 51.859C245.809 53.0703 245.525 54.1513 244.958 55.102C244.406 56.0527 243.631 56.804 242.635 57.356C241.653 57.8927 240.526 58.161 239.254 58.161ZM239.254 55.7C239.959 55.7 240.588 55.5467 241.14 55.24C241.692 54.9333 242.121 54.4887 242.428 53.906C242.75 53.3233 242.911 52.641 242.911 51.859C242.911 51.0617 242.75 50.3793 242.428 49.812C242.121 49.2293 241.692 48.7847 241.14 48.478C240.588 48.1713 239.967 48.018 239.277 48.018C238.571 48.018 237.943 48.1713 237.391 48.478C236.854 48.7847 236.425 49.2293 236.103 49.812C235.781 50.3793 235.62 51.0617 235.62 51.859C235.62 52.641 235.781 53.3233 236.103 53.906C236.425 54.4887 236.854 54.9333 237.391 55.24C237.943 55.5467 238.564 55.7 239.254 55.7ZM256.932 56.666V48.156H252.217L252.148 50.134C252.117 50.8393 252.071 51.5217 252.01 52.181C251.949 52.825 251.849 53.423 251.711 53.975C251.573 54.5117 251.374 54.9563 251.113 55.309C250.852 55.6617 250.507 55.8917 250.078 55.999L247.226 55.562C247.686 55.562 248.054 55.4163 248.33 55.125C248.621 54.8183 248.844 54.4043 248.997 53.883C249.166 53.3463 249.288 52.7407 249.365 52.066C249.442 51.376 249.495 50.663 249.526 49.927L249.687 45.718H259.807V56.666H256.932ZM246.789 60.737V55.562H261.624V60.737H258.933V58H249.457V60.737H246.789Z" fill="white"/>
</g>
<path d="M162 78L152.121 89.0236C150.955 90.3255 149.045 90.3255 147.879 89.0236L138 78" stroke="white" stroke-width="3" stroke-miterlimit="10" stroke-linecap="round" stroke-linejoin="round"/>
<defs>
<filter id="filter0_d_123_29" x="0.11721" y="0.987999" width="301.407" height="101.535" filterUnits="userSpaceOnUse" color-interpolation-filters="sRGB">
<feFlood flood-opacity="0" result="BackgroundImageFix"/>
<feColorMatrix in="SourceAlpha" type="matrix" values="0 0 0 0 0 0 0 0 0 0 0 0 0 0 0 0 0 0 127 0" result="hardAlpha"/>
<feOffset/>
<feGaussianBlur stdDeviation="19.95"/>
<feComposite in2="hardAlpha" operator="out"/>
<feColorMatrix type="matrix" values="0 0 0 0 1 0 0 0 0 1 0 0 0 0 1 0 0 0 0.4 0"/>
<feBlend mode="normal" in2="BackgroundImageFix" result="effect1_dropShadow_123_29"/>
<feBlend mode="normal" in="SourceGraphic" in2="effect1_dropShadow_123_29" result="shape"/>
</filter>
</defs>
</svg>
